<mxfile host="65bd71144e">
    <diagram id="2QA6UR-krt0bM7Kzs4Fd" name="Page-1">
        <mxGraphModel dx="832" dy="475" grid="1" gridSize="10" guides="1" tooltips="1" connect="1" arrows="1" fold="1" page="1" pageScale="1" pageWidth="827" pageHeight="1169" background="#ffffff" math="0" shadow="0">
            <root>
                <mxCell id="0"/>
                <mxCell id="1" parent="0"/>
                <mxCell id="36" value="Core" style="swimlane;fontStyle=1;align=center;verticalAlign=top;childLayout=stackLayout;horizontal=1;startSize=38;horizontalStack=0;resizeParent=1;resizeParentMax=0;resizeLast=0;collapsible=1;marginBottom=0;fillColor=#a20025;fontColor=#ffffff;strokeColor=#000000;" parent="1" vertex="1">
                    <mxGeometry x="124" y="540" width="190" height="146" as="geometry"/>
                </mxCell>
                <mxCell id="37" value="# currentController : string&#10;# currentMethod:string&#10;# params: array" style="text;strokeColor=#000000;fillColor=none;align=left;verticalAlign=top;spacingLeft=4;spacingRight=4;overflow=hidden;rotatable=0;points=[[0,0.5],[1,0.5]];portConstraint=eastwest;fontColor=#000000;" parent="36" vertex="1">
                    <mxGeometry y="38" width="190" height="62" as="geometry"/>
                </mxCell>
                <mxCell id="39" value="+ Core &#10;+ getUrl : array " style="text;strokeColor=#000000;fillColor=none;align=left;verticalAlign=top;spacingLeft=4;spacingRight=4;overflow=hidden;rotatable=0;points=[[0,0.5],[1,0.5]];portConstraint=eastwest;" parent="36" vertex="1">
                    <mxGeometry y="100" width="190" height="46" as="geometry"/>
                </mxCell>
                <mxCell id="40" value="Controller" style="swimlane;fontStyle=1;align=center;verticalAlign=top;childLayout=stackLayout;horizontal=1;startSize=26;horizontalStack=0;resizeParent=1;resizeParentMax=0;resizeLast=0;collapsible=1;marginBottom=0;fontColor=#ffffff;fillColor=#a20025;strokeColor=#000000;" parent="1" vertex="1">
                    <mxGeometry x="924" y="540" width="160" height="100" as="geometry"/>
                </mxCell>
                <mxCell id="42" value="" style="line;strokeWidth=1;fillColor=none;align=left;verticalAlign=middle;spacingTop=-1;spacingLeft=3;spacingRight=3;rotatable=0;labelPosition=right;points=[];portConstraint=eastwest;fontColor=#FFFFFF;strokeColor=#000000;" parent="40" vertex="1">
                    <mxGeometry y="26" width="160" height="8" as="geometry"/>
                </mxCell>
                <mxCell id="43" value="+ model(model: string)&#10;+ view(view:string)" style="text;strokeColor=#000000;fillColor=none;align=left;verticalAlign=top;spacingLeft=4;spacingRight=4;overflow=hidden;rotatable=0;points=[[0,0.5],[1,0.5]];portConstraint=eastwest;fontColor=#000000;" parent="40" vertex="1">
                    <mxGeometry y="34" width="160" height="66" as="geometry"/>
                </mxCell>
                <mxCell id="44" value="Database" style="swimlane;fontStyle=1;align=center;verticalAlign=top;childLayout=stackLayout;horizontal=1;startSize=26;horizontalStack=0;resizeParent=1;resizeParentMax=0;resizeLast=0;collapsible=1;marginBottom=0;fontColor=#ffffff;fillColor=#a20025;strokeColor=#000000;" parent="1" vertex="1">
                    <mxGeometry x="1854" y="460" width="250" height="270" as="geometry"/>
                </mxCell>
                <mxCell id="45" value="- host:string&#10;- user : string&#10;- pass : string&#10;- dbname : string&#10;- dbh : string&#10;- stmt : string&#10;- error : string" style="text;strokeColor=#FFFFFF;fillColor=none;align=left;verticalAlign=top;spacingLeft=4;spacingRight=4;overflow=hidden;rotatable=0;points=[[0,0.5],[1,0.5]];portConstraint=eastwest;fontColor=#000000;" parent="44" vertex="1">
                    <mxGeometry y="26" width="250" height="114" as="geometry"/>
                </mxCell>
                <mxCell id="46" value="" style="line;strokeWidth=1;fillColor=none;align=left;verticalAlign=middle;spacingTop=-1;spacingLeft=3;spacingRight=3;rotatable=0;labelPosition=right;points=[];portConstraint=eastwest;fontColor=#FFFFFF;strokeColor=#FFFFFF;" parent="44" vertex="1">
                    <mxGeometry y="140" width="250" height="8" as="geometry"/>
                </mxCell>
                <mxCell id="47" value="+ Database&#10;+ query (sql : string)&#10;+ bind(param:string,value:string,type: null)&#10;+ execute&#10;+ resultSet(): array&#10;+ single() : obj&#10;+ rowCount() : " style="text;strokeColor=#FFFFFF;fillColor=none;align=left;verticalAlign=top;spacingLeft=4;spacingRight=4;overflow=hidden;rotatable=0;points=[[0,0.5],[1,0.5]];portConstraint=eastwest;fontColor=#000000;" parent="44" vertex="1">
                    <mxGeometry y="148" width="250" height="122" as="geometry"/>
                </mxCell>
                <mxCell id="124" style="edgeStyle=orthogonalEdgeStyle;jumpStyle=none;jumpSize=21;html=1;endArrow=diamond;endFill=1;startSize=14;endSize=12;strokeColor=#000000;strokeWidth=5;fillColor=#1ba1e2;" parent="1" source="48" edge="1">
                    <mxGeometry relative="1" as="geometry">
                        <mxPoint x="1044" y="530" as="targetPoint"/>
                    </mxGeometry>
                </mxCell>
                <mxCell id="125" style="edgeStyle=orthogonalEdgeStyle;jumpStyle=none;jumpSize=21;html=1;endArrow=diamond;endFill=1;startSize=14;endSize=12;strokeColor=#000000;strokeWidth=5;" parent="1" source="48" edge="1">
                    <mxGeometry relative="1" as="geometry">
                        <mxPoint x="2034" y="450" as="targetPoint"/>
                    </mxGeometry>
                </mxCell>
                <mxCell id="48" value="Admin" style="swimlane;fontStyle=1;align=center;verticalAlign=top;childLayout=stackLayout;horizontal=1;startSize=26;horizontalStack=0;resizeParent=1;resizeParentMax=0;resizeLast=0;collapsible=1;marginBottom=0;fontColor=#ffffff;fillColor=#1ba1e2;strokeColor=#000000;" parent="1" vertex="1">
                    <mxGeometry x="1294" y="240" width="270" height="160" as="geometry"/>
                </mxCell>
                <mxCell id="50" value="" style="line;strokeWidth=1;fillColor=none;align=left;verticalAlign=middle;spacingTop=-1;spacingLeft=3;spacingRight=3;rotatable=0;labelPosition=right;points=[];portConstraint=eastwest;fontColor=#FFFFFF;strokeColor=#000000;" parent="48" vertex="1">
                    <mxGeometry y="26" width="270" height="8" as="geometry"/>
                </mxCell>
                <mxCell id="49" value="- db : string" style="text;strokeColor=#000000;fillColor=none;align=left;verticalAlign=top;spacingLeft=4;spacingRight=4;overflow=hidden;rotatable=0;points=[[0,0.5],[1,0.5]];portConstraint=eastwest;fontColor=#000000;" parent="48" vertex="1">
                    <mxGeometry y="34" width="270" height="26" as="geometry"/>
                </mxCell>
                <mxCell id="51" value="+ Admin&#10;+ signin (email, password)&#10;+ findAdminByEmail(email)&#10;+ findAdminByEmailAndReturnAdminData($id)" style="text;strokeColor=#000000;fillColor=none;align=left;verticalAlign=top;spacingLeft=4;spacingRight=4;overflow=hidden;rotatable=0;points=[[0,0.5],[1,0.5]];portConstraint=eastwest;fontColor=#000000;" parent="48" vertex="1">
                    <mxGeometry y="60" width="270" height="100" as="geometry"/>
                </mxCell>
                <mxCell id="52" value="Libraries" style="html=1;fontColor=#ffffff;fillColor=#a20025;strokeColor=#6F0000;" parent="1" vertex="1">
                    <mxGeometry width="110" height="50" as="geometry"/>
                </mxCell>
                <mxCell id="53" value="controllers" style="html=1;fontColor=#ffffff;fillColor=#60a917;strokeColor=#2D7600;" parent="1" vertex="1">
                    <mxGeometry x="120" width="110" height="50" as="geometry"/>
                </mxCell>
                <mxCell id="54" value="models" style="html=1;fontColor=#ffffff;fillColor=#1ba1e2;strokeColor=#006EAF;" parent="1" vertex="1">
                    <mxGeometry x="240" width="110" height="50" as="geometry"/>
                </mxCell>
                <mxCell id="122" style="edgeStyle=orthogonalEdgeStyle;jumpStyle=none;jumpSize=21;html=1;endArrow=diamond;endFill=1;startSize=14;endSize=12;strokeColor=#000000;strokeWidth=5;fillColor=#1ba1e2;" parent="1" source="60" edge="1">
                    <mxGeometry relative="1" as="geometry">
                        <mxPoint x="1074" y="650" as="targetPoint"/>
                    </mxGeometry>
                </mxCell>
                <mxCell id="128" style="edgeStyle=orthogonalEdgeStyle;jumpStyle=none;jumpSize=21;html=1;endArrow=diamond;endFill=1;startSize=14;endSize=12;strokeColor=#000000;strokeWidth=5;" parent="1" source="60" edge="1">
                    <mxGeometry relative="1" as="geometry">
                        <mxPoint x="1894" y="730" as="targetPoint"/>
                        <Array as="points">
                            <mxPoint x="1894" y="783"/>
                        </Array>
                    </mxGeometry>
                </mxCell>
                <mxCell id="60" value="User" style="swimlane;fontStyle=1;align=center;verticalAlign=top;childLayout=stackLayout;horizontal=1;startSize=26;horizontalStack=0;resizeParent=1;resizeParentMax=0;resizeLast=0;collapsible=1;marginBottom=0;fontColor=#ffffff;fillColor=#1ba1e2;strokeColor=#000000;" parent="1" vertex="1">
                    <mxGeometry x="1294" y="678" width="270" height="210" as="geometry"/>
                </mxCell>
                <mxCell id="61" value="- db : string" style="text;strokeColor=#000000;fillColor=none;align=left;verticalAlign=top;spacingLeft=4;spacingRight=4;overflow=hidden;rotatable=0;points=[[0,0.5],[1,0.5]];portConstraint=eastwest;fontColor=#000000;" parent="60" vertex="1">
                    <mxGeometry y="26" width="270" height="26" as="geometry"/>
                </mxCell>
                <mxCell id="62" value="" style="line;strokeWidth=1;fillColor=none;align=left;verticalAlign=middle;spacingTop=-1;spacingLeft=3;spacingRight=3;rotatable=0;labelPosition=right;points=[];portConstraint=eastwest;fontColor=#FFFFFF;strokeColor=#000000;" parent="60" vertex="1">
                    <mxGeometry y="52" width="270" height="8" as="geometry"/>
                </mxCell>
                <mxCell id="63" value="+ User&#10;+ signup(data ; array)&#10;+ signin(email :string, password)&#10;+ getAllUser() : array&#10;+ findUserByEmail(email :string)&#10;+ getUserById(id)&#10;+ findUserByEmailAndReturnUserData(email)&#10;+ editeProfile(data: array, id)" style="text;strokeColor=#000000;fillColor=none;align=left;verticalAlign=top;spacingLeft=4;spacingRight=4;overflow=hidden;rotatable=0;points=[[0,0.5],[1,0.5]];portConstraint=eastwest;fontColor=#000000;" parent="60" vertex="1">
                    <mxGeometry y="60" width="270" height="150" as="geometry"/>
                </mxCell>
                <mxCell id="127" style="edgeStyle=orthogonalEdgeStyle;jumpStyle=none;jumpSize=21;html=1;endArrow=diamond;endFill=1;startSize=14;endSize=12;strokeColor=#000000;strokeWidth=5;" parent="1" source="64" edge="1">
                    <mxGeometry relative="1" as="geometry">
                        <mxPoint x="1844" y="534.9999999999998" as="targetPoint"/>
                    </mxGeometry>
                </mxCell>
                <mxCell id="64" value="Products" style="swimlane;fontStyle=1;align=center;verticalAlign=top;childLayout=stackLayout;horizontal=1;startSize=26;horizontalStack=0;resizeParent=1;resizeParentMax=0;resizeLast=0;collapsible=1;marginBottom=0;fontColor=#ffffff;fillColor=#1ba1e2;strokeColor=#000000;" parent="1" vertex="1">
                    <mxGeometry x="1294" y="450" width="270" height="170" as="geometry"/>
                </mxCell>
                <mxCell id="65" value="- db : string" style="text;strokeColor=#000000;fillColor=none;align=left;verticalAlign=top;spacingLeft=4;spacingRight=4;overflow=hidden;rotatable=0;points=[[0,0.5],[1,0.5]];portConstraint=eastwest;fontColor=#000000;" parent="64" vertex="1">
                    <mxGeometry y="26" width="270" height="26" as="geometry"/>
                </mxCell>
                <mxCell id="66" value="" style="line;strokeWidth=1;fillColor=none;align=left;verticalAlign=middle;spacingTop=-1;spacingLeft=3;spacingRight=3;rotatable=0;labelPosition=right;points=[];portConstraint=eastwest;fontColor=#FFFFFF;strokeColor=#000000;" parent="64" vertex="1">
                    <mxGeometry y="52" width="270" height="8" as="geometry"/>
                </mxCell>
                <mxCell id="67" value="+ Products&#10;+ affichageProduct() : array&#10;+ addProduct(data : array)&#10;+ editeProduct(data, id)&#10;+ getprodById(id)&#10;+ deleteProduct(id)" style="text;strokeColor=#000000;fillColor=none;align=left;verticalAlign=top;spacingLeft=4;spacingRight=4;overflow=hidden;rotatable=0;points=[[0,0.5],[1,0.5]];portConstraint=eastwest;fontColor=#000000;" parent="64" vertex="1">
                    <mxGeometry y="60" width="270" height="110" as="geometry"/>
                </mxCell>
                <mxCell id="98" style="edgeStyle=orthogonalEdgeStyle;html=1;strokeWidth=5;endArrow=diamond;endFill=1;strokeColor=#000000;" parent="1" source="72" edge="1">
                    <mxGeometry relative="1" as="geometry">
                        <mxPoint x="194" y="540" as="targetPoint"/>
                    </mxGeometry>
                </mxCell>
                <mxCell id="72" value="DashboardAdmin" style="swimlane;fontStyle=1;align=center;verticalAlign=top;childLayout=stackLayout;horizontal=1;startSize=40;horizontalStack=0;resizeParent=1;resizeParentMax=0;resizeLast=0;collapsible=1;marginBottom=0;fontColor=#ffffff;fillColor=#60a917;strokeColor=#000000;" parent="1" vertex="1">
                    <mxGeometry x="444" y="220" width="275" height="148" as="geometry"/>
                </mxCell>
                <mxCell id="74" value="" style="line;strokeWidth=1;fillColor=none;align=left;verticalAlign=middle;spacingTop=-1;spacingLeft=3;spacingRight=3;rotatable=0;labelPosition=right;points=[];portConstraint=eastwest;fontColor=#FFFFFF;strokeColor=#000000;" parent="72" vertex="1">
                    <mxGeometry y="40" width="275" height="8" as="geometry"/>
                </mxCell>
                <mxCell id="75" value="+ DashboardAdmin&#10;+ dashAdm&#10;+ dashAdmUse&#10;+ dashIndex&#10;+ creatSessionAdmin(admin)&#10;+ logout()" style="text;strokeColor=#000000;fillColor=none;align=left;verticalAlign=top;spacingLeft=4;spacingRight=4;overflow=hidden;rotatable=0;points=[[0,0.5],[1,0.5]];portConstraint=eastwest;fontColor=#000000;" parent="72" vertex="1">
                    <mxGeometry y="48" width="275" height="100" as="geometry"/>
                </mxCell>
                <mxCell id="76" value="Users" style="swimlane;fontStyle=1;align=center;verticalAlign=top;childLayout=stackLayout;horizontal=1;startSize=26;horizontalStack=0;resizeParent=1;resizeParentMax=0;resizeLast=0;collapsible=1;marginBottom=0;fontColor=#ffffff;fillColor=#60a917;strokeColor=#000000;" parent="1" vertex="1">
                    <mxGeometry x="444" y="920" width="280" height="130" as="geometry"/>
                </mxCell>
                <mxCell id="78" value="" style="line;strokeWidth=1;fillColor=none;align=left;verticalAlign=middle;spacingTop=-1;spacingLeft=3;spacingRight=3;rotatable=0;labelPosition=right;points=[];portConstraint=eastwest;fontColor=#FFFFFF;strokeColor=#000000;" parent="76" vertex="1">
                    <mxGeometry y="26" width="280" height="8" as="geometry"/>
                </mxCell>
                <mxCell id="79" value="+ Users&#10;+ signup&#10;+ signin&#10;+ creatSessionUser(user)&#10;+ logout" style="text;strokeColor=#000000;fillColor=none;align=left;verticalAlign=top;spacingLeft=4;spacingRight=4;overflow=hidden;rotatable=0;points=[[0,0.5],[1,0.5]];portConstraint=eastwest;fontColor=#000000;" parent="76" vertex="1">
                    <mxGeometry y="34" width="280" height="96" as="geometry"/>
                </mxCell>
                <mxCell id="81" value="Profile" style="swimlane;fontStyle=1;align=center;verticalAlign=top;childLayout=stackLayout;horizontal=1;startSize=40;horizontalStack=0;resizeParent=1;resizeParentMax=0;resizeLast=0;collapsible=1;marginBottom=0;fontColor=#ffffff;fillColor=#60a917;strokeColor=#000000;" parent="1" vertex="1">
                    <mxGeometry x="444" y="598" width="280" height="116" as="geometry"/>
                </mxCell>
                <mxCell id="82" value="" style="line;strokeWidth=1;fillColor=none;align=left;verticalAlign=middle;spacingTop=-1;spacingLeft=3;spacingRight=3;rotatable=0;labelPosition=right;points=[];portConstraint=eastwest;fontColor=#FFFFFF;strokeColor=#000000;" parent="81" vertex="1">
                    <mxGeometry y="40" width="280" height="8" as="geometry"/>
                </mxCell>
                <mxCell id="83" value="+ Profile&#10;+ findUserByEmailAndReturnUserData()&#10;+ editeProfile(id)&#10;+ createnewUserSession(data)" style="text;strokeColor=#000000;fillColor=none;align=left;verticalAlign=top;spacingLeft=4;spacingRight=4;overflow=hidden;rotatable=0;points=[[0,0.5],[1,0.5]];portConstraint=eastwest;fontColor=#000000;" parent="81" vertex="1">
                    <mxGeometry y="48" width="280" height="68" as="geometry"/>
                </mxCell>
                <mxCell id="99" style="edgeStyle=orthogonalEdgeStyle;html=1;strokeWidth=5;endArrow=diamond;endFill=1;entryX=0.75;entryY=0;entryDx=0;entryDy=0;strokeColor=#000000;" parent="1" source="84" target="36" edge="1">
                    <mxGeometry relative="1" as="geometry">
                        <mxPoint x="233" y="570" as="targetPoint"/>
                    </mxGeometry>
                </mxCell>
                <mxCell id="109" style="edgeStyle=orthogonalEdgeStyle;jumpStyle=none;jumpSize=21;html=1;endArrow=block;endFill=1;startSize=14;endSize=12;strokeColor=#000000;strokeWidth=5;entryX=0.25;entryY=0;entryDx=0;entryDy=0;fillColor=#60a917;" parent="1" source="84" target="40" edge="1">
                    <mxGeometry relative="1" as="geometry">
                        <mxPoint x="972" y="510" as="targetPoint"/>
                    </mxGeometry>
                </mxCell>
                <mxCell id="84" value="DashAdmProd" style="swimlane;fontStyle=1;align=center;verticalAlign=top;childLayout=stackLayout;horizontal=1;startSize=40;horizontalStack=0;resizeParent=1;resizeParentMax=0;resizeLast=0;collapsible=1;marginBottom=0;fontColor=#ffffff;fillColor=#60a917;strokeColor=#000000;" parent="1" vertex="1">
                    <mxGeometry x="444" y="412" width="270" height="148" as="geometry"/>
                </mxCell>
                <mxCell id="85" value="" style="line;strokeWidth=1;fillColor=none;align=left;verticalAlign=middle;spacingTop=-1;spacingLeft=3;spacingRight=3;rotatable=0;labelPosition=right;points=[];portConstraint=eastwest;fontColor=#FFFFFF;strokeColor=#000000;" parent="84" vertex="1">
                    <mxGeometry y="40" width="270" height="8" as="geometry"/>
                </mxCell>
                <mxCell id="86" value="+ DashAdmProd&#10;+ dashProd&#10;+ addProd&#10;+ editeProd(id)&#10;+ delete(id)" style="text;strokeColor=#000000;fillColor=none;align=left;verticalAlign=top;spacingLeft=4;spacingRight=4;overflow=hidden;rotatable=0;points=[[0,0.5],[1,0.5]];portConstraint=eastwest;fontColor=#000000;" parent="84" vertex="1">
                    <mxGeometry y="48" width="270" height="100" as="geometry"/>
                </mxCell>
                <mxCell id="88" value="Panier" style="swimlane;fontStyle=1;align=center;verticalAlign=top;childLayout=stackLayout;horizontal=1;startSize=40;horizontalStack=0;resizeParent=1;resizeParentMax=0;resizeLast=0;collapsible=1;marginBottom=0;fontColor=#ffffff;fillColor=#60a917;strokeColor=#000000;" parent="1" vertex="1">
                    <mxGeometry x="444" y="760" width="280" height="128" as="geometry"/>
                </mxCell>
                <mxCell id="89" value="" style="line;strokeWidth=1;fillColor=none;align=left;verticalAlign=middle;spacingTop=-1;spacingLeft=3;spacingRight=3;rotatable=0;labelPosition=right;points=[];portConstraint=eastwest;fontColor=#FFFFFF;strokeColor=#000000;" parent="88" vertex="1">
                    <mxGeometry y="40" width="280" height="8" as="geometry"/>
                </mxCell>
                <mxCell id="90" value="+ Profile&#10;+ findUserByEmailAndReturnUserData()&#10;+ editeProfile(id)&#10;+ createnewUserSession(data)" style="text;strokeColor=#000000;fillColor=none;align=left;verticalAlign=top;spacingLeft=4;spacingRight=4;overflow=hidden;rotatable=0;points=[[0,0.5],[1,0.5]];portConstraint=eastwest;fontColor=#000000;" parent="88" vertex="1">
                    <mxGeometry y="48" width="280" height="80" as="geometry"/>
                </mxCell>
                <mxCell id="113" style="edgeStyle=orthogonalEdgeStyle;jumpStyle=none;jumpSize=21;html=1;endArrow=block;endFill=1;startSize=14;endSize=12;strokeColor=#000000;strokeWidth=5;fillColor=#60a917;" parent="1" source="68" edge="1">
                    <mxGeometry relative="1" as="geometry">
                        <mxPoint x="1014" y="650" as="targetPoint"/>
                    </mxGeometry>
                </mxCell>
                <mxCell id="68" value="Pages" style="swimlane;fontStyle=1;align=center;verticalAlign=top;childLayout=stackLayout;horizontal=1;startSize=40;horizontalStack=0;resizeParent=1;resizeParentMax=0;resizeLast=0;collapsible=1;marginBottom=0;fontColor=#ffffff;fillColor=#60a917;strokeColor=#000000;" parent="1" vertex="1">
                    <mxGeometry x="444" y="1080" width="280" height="48" as="geometry"/>
                </mxCell>
                <mxCell id="70" value="" style="line;strokeWidth=1;fillColor=none;align=left;verticalAlign=middle;spacingTop=-1;spacingLeft=3;spacingRight=3;rotatable=0;labelPosition=right;points=[];portConstraint=eastwest;fontColor=#FFFFFF;strokeColor=#000000;" parent="68" vertex="1">
                    <mxGeometry y="40" width="280" height="8" as="geometry"/>
                </mxCell>
                <mxCell id="100" style="edgeStyle=orthogonalEdgeStyle;html=1;strokeWidth=5;endArrow=diamond;endFill=1;entryX=1.055;entryY=1.081;entryDx=0;entryDy=0;entryPerimeter=0;strokeColor=#000000;" parent="1" source="83" target="37" edge="1">
                    <mxGeometry relative="1" as="geometry">
                        <mxPoint x="314" y="664" as="targetPoint"/>
                    </mxGeometry>
                </mxCell>
                <mxCell id="101" style="edgeStyle=orthogonalEdgeStyle;html=1;strokeWidth=5;endArrow=diamond;endFill=1;strokeColor=#000000;" parent="1" source="90" edge="1">
                    <mxGeometry relative="1" as="geometry">
                        <mxPoint x="234" y="720" as="targetPoint"/>
                    </mxGeometry>
                </mxCell>
                <mxCell id="102" style="edgeStyle=orthogonalEdgeStyle;html=1;strokeWidth=5;endArrow=diamond;endFill=1;strokeColor=#000000;" parent="1" source="79" edge="1">
                    <mxGeometry relative="1" as="geometry">
                        <mxPoint x="204" y="720" as="targetPoint"/>
                    </mxGeometry>
                </mxCell>
                <mxCell id="103" style="edgeStyle=orthogonalEdgeStyle;html=1;strokeWidth=5;endArrow=diamond;endFill=1;strokeColor=#000000;" parent="1" source="70" edge="1">
                    <mxGeometry relative="1" as="geometry">
                        <mxPoint x="164" y="710" as="targetPoint"/>
                    </mxGeometry>
                </mxCell>
                <mxCell id="107" style="edgeStyle=orthogonalEdgeStyle;html=1;exitX=1;exitY=0.5;exitDx=0;exitDy=0;endArrow=block;endFill=1;endSize=12;jumpSize=21;jumpStyle=none;fillColor=#60a917;strokeColor=#000000;startSize=14;strokeWidth=4;" parent="1" source="75" edge="1">
                    <mxGeometry relative="1" as="geometry">
                        <mxPoint x="1004" y="530" as="targetPoint"/>
                    </mxGeometry>
                </mxCell>
                <mxCell id="110" style="edgeStyle=orthogonalEdgeStyle;jumpStyle=none;jumpSize=21;html=1;endArrow=block;endFill=1;startSize=14;endSize=12;strokeColor=#000000;strokeWidth=5;entryX=-0.053;entryY=0.409;entryDx=0;entryDy=0;fillColor=#60a917;entryPerimeter=0;" parent="1" source="83" target="43" edge="1">
                    <mxGeometry relative="1" as="geometry">
                        <mxPoint x="904" y="643" as="targetPoint"/>
                    </mxGeometry>
                </mxCell>
                <mxCell id="111" style="edgeStyle=orthogonalEdgeStyle;jumpStyle=none;jumpSize=21;html=1;endArrow=block;endFill=1;startSize=14;endSize=12;strokeColor=#000000;strokeWidth=5;fillColor=#60a917;" parent="1" source="90" edge="1">
                    <mxGeometry relative="1" as="geometry">
                        <mxPoint x="944" y="650" as="targetPoint"/>
                    </mxGeometry>
                </mxCell>
                <mxCell id="112" style="edgeStyle=orthogonalEdgeStyle;jumpStyle=none;jumpSize=21;html=1;endArrow=block;endFill=1;startSize=14;endSize=12;strokeColor=#000000;strokeWidth=5;fillColor=#60a917;" parent="1" source="79" edge="1">
                    <mxGeometry relative="1" as="geometry">
                        <mxPoint x="984" y="650" as="targetPoint"/>
                    </mxGeometry>
                </mxCell>
                <mxCell id="71" value="+ Pages&#10;+ index&#10;+ panier" style="text;strokeColor=#000000;fillColor=none;align=left;verticalAlign=top;spacingLeft=4;spacingRight=4;overflow=hidden;rotatable=0;points=[[0,0.5],[1,0.5]];portConstraint=eastwest;fontColor=#000000;" parent="1" vertex="1">
                    <mxGeometry x="444" y="1120" width="280" height="76" as="geometry"/>
                </mxCell>
                <mxCell id="121" style="edgeStyle=orthogonalEdgeStyle;jumpStyle=none;jumpSize=21;html=1;endArrow=diamond;endFill=1;startSize=14;endSize=12;strokeColor=#000000;strokeWidth=5;fillColor=#1ba1e2;" parent="1" source="117" edge="1">
                    <mxGeometry relative="1" as="geometry">
                        <mxPoint x="1044" y="640" as="targetPoint"/>
                    </mxGeometry>
                </mxCell>
                <mxCell id="129" style="edgeStyle=orthogonalEdgeStyle;jumpStyle=none;jumpSize=21;html=1;endArrow=diamond;endFill=1;startSize=14;endSize=12;strokeColor=#000000;strokeWidth=5;entryX=0.52;entryY=1;entryDx=0;entryDy=0;entryPerimeter=0;" parent="1" source="117" target="47" edge="1">
                    <mxGeometry relative="1" as="geometry">
                        <mxPoint x="1984" y="740.0000000000002" as="targetPoint"/>
                        <Array as="points">
                            <mxPoint x="1984" y="1000"/>
                        </Array>
                    </mxGeometry>
                </mxCell>
                <mxCell id="117" value="Products" style="swimlane;fontStyle=1;align=center;verticalAlign=top;childLayout=stackLayout;horizontal=1;startSize=26;horizontalStack=0;resizeParent=1;resizeParentMax=0;resizeLast=0;collapsible=1;marginBottom=0;fontColor=#ffffff;fillColor=#1ba1e2;strokeColor=#000000;" parent="1" vertex="1">
                    <mxGeometry x="1294" y="940" width="270" height="170" as="geometry"/>
                </mxCell>
                <mxCell id="118" value="- db : string" style="text;strokeColor=#000000;fillColor=none;align=left;verticalAlign=top;spacingLeft=4;spacingRight=4;overflow=hidden;rotatable=0;points=[[0,0.5],[1,0.5]];portConstraint=eastwest;fontColor=#000000;" parent="117" vertex="1">
                    <mxGeometry y="26" width="270" height="26" as="geometry"/>
                </mxCell>
                <mxCell id="119" value="" style="line;strokeWidth=1;fillColor=none;align=left;verticalAlign=middle;spacingTop=-1;spacingLeft=3;spacingRight=3;rotatable=0;labelPosition=right;points=[];portConstraint=eastwest;fontColor=#FFFFFF;strokeColor=#000000;" parent="117" vertex="1">
                    <mxGeometry y="52" width="270" height="8" as="geometry"/>
                </mxCell>
                <mxCell id="120" value="+ Products&#10;+ affichageProduct() : array&#10;+ addProduct(data : array)&#10;+ editeProduct(data, id)&#10;+ getprodById(id)&#10;+ deleteProduct(id)" style="text;strokeColor=#000000;fillColor=none;align=left;verticalAlign=top;spacingLeft=4;spacingRight=4;overflow=hidden;rotatable=0;points=[[0,0.5],[1,0.5]];portConstraint=eastwest;fontColor=#000000;" parent="117" vertex="1">
                    <mxGeometry y="60" width="270" height="110" as="geometry"/>
                </mxCell>
                <mxCell id="123" style="edgeStyle=orthogonalEdgeStyle;jumpStyle=none;jumpSize=21;html=1;entryX=1;entryY=0.5;entryDx=0;entryDy=0;endArrow=diamond;endFill=1;startSize=14;endSize=12;strokeColor=#000000;strokeWidth=5;fillColor=#1ba1e2;" parent="1" source="67" target="43" edge="1">
                    <mxGeometry relative="1" as="geometry"/>
                </mxCell>
                <mxCell id="130" value="&lt;font style=&quot;font-size: 46px&quot;&gt;Diagramme&amp;nbsp; de class&lt;/font&gt;" style="html=1;strokeWidth=4;" parent="1" vertex="1">
                    <mxGeometry x="710" y="10" width="490" height="100" as="geometry"/>
                </mxCell>
                <mxCell id="131" value="&lt;font style=&quot;font-size: 46px&quot;&gt;Diagramme&amp;nbsp; de class&lt;/font&gt;" style="html=1;strokeWidth=4;" parent="1" vertex="1">
                    <mxGeometry x="2955" y="10" width="490" height="100" as="geometry"/>
                </mxCell>
                <mxCell id="192" value="" style="rhombus;whiteSpace=wrap;html=1;labelBorderColor=default;fontColor=#000000;strokeColor=#FFFFFF;" parent="1" vertex="1">
                    <mxGeometry x="3770" y="1040" width="80" height="80" as="geometry"/>
                </mxCell>
            </root>
        </mxGraphModel>
    </diagram>
    <diagram id="Ubjwl9-RiV8B1KKOcCXM" name="Page-2">
        <mxGraphModel dx="-1649" dy="475" grid="1" gridSize="10" guides="1" tooltips="1" connect="1" arrows="1" fold="1" page="1" pageScale="1" pageWidth="827" pageHeight="1169" background="#000000" math="0" shadow="0">
            <root>
                <mxCell id="4LGm2YjDzJl-uUaXYnk--0"/>
                <mxCell id="4LGm2YjDzJl-uUaXYnk--1" parent="4LGm2YjDzJl-uUaXYnk--0"/>
                <mxCell id="2bXB0EfvPMO8eIpLFLuM-0" value="Visiteure" style="shape=umlActor;verticalLabelPosition=bottom;verticalAlign=top;html=1;" parent="4LGm2YjDzJl-uUaXYnk--1" vertex="1">
                    <mxGeometry x="2650" y="288" width="50" height="102" as="geometry"/>
                </mxCell>
                <mxCell id="2bXB0EfvPMO8eIpLFLuM-1" style="edgeStyle=none;html=1;exitX=0.5;exitY=0;exitDx=0;exitDy=0;exitPerimeter=0;" parent="4LGm2YjDzJl-uUaXYnk--1" source="2bXB0EfvPMO8eIpLFLuM-2" edge="1">
                    <mxGeometry relative="1" as="geometry">
                        <mxPoint x="2675.333333333334" y="410" as="targetPoint"/>
                    </mxGeometry>
                </mxCell>
                <mxCell id="2bXB0EfvPMO8eIpLFLuM-2" value="Client" style="shape=umlActor;verticalLabelPosition=bottom;verticalAlign=top;html=1;" parent="4LGm2YjDzJl-uUaXYnk--1" vertex="1">
                    <mxGeometry x="2650" y="504" width="50" height="102" as="geometry"/>
                </mxCell>
                <mxCell id="2bXB0EfvPMO8eIpLFLuM-3" style="edgeStyle=none;html=1;" parent="4LGm2YjDzJl-uUaXYnk--1" source="2bXB0EfvPMO8eIpLFLuM-4" edge="1">
                    <mxGeometry relative="1" as="geometry">
                        <mxPoint x="2675" y="640" as="targetPoint"/>
                    </mxGeometry>
                </mxCell>
                <mxCell id="2bXB0EfvPMO8eIpLFLuM-4" value="Admin" style="shape=umlActor;verticalLabelPosition=bottom;verticalAlign=top;html=1;" parent="4LGm2YjDzJl-uUaXYnk--1" vertex="1">
                    <mxGeometry x="2650" y="712" width="50" height="104" as="geometry"/>
                </mxCell>
                <mxCell id="2bXB0EfvPMO8eIpLFLuM-5" value="" style="whiteSpace=wrap;html=1;aspect=fixed;fillColor=#f5f5f5;fontColor=#333333;strokeColor=#666666;" parent="4LGm2YjDzJl-uUaXYnk--1" vertex="1">
                    <mxGeometry x="2790" y="170" width="840" height="840" as="geometry"/>
                </mxCell>
                <mxCell id="2bXB0EfvPMO8eIpLFLuM-6" style="edgeStyle=none;html=1;endArrow=none;endFill=0;strokeColor=#00FFFF;" parent="4LGm2YjDzJl-uUaXYnk--1" source="2bXB0EfvPMO8eIpLFLuM-7" edge="1">
                    <mxGeometry relative="1" as="geometry">
                        <mxPoint x="2710" y="340" as="targetPoint"/>
                    </mxGeometry>
                </mxCell>
                <mxCell id="2bXB0EfvPMO8eIpLFLuM-7" value="Sinscrire" style="ellipse;whiteSpace=wrap;html=1;" parent="4LGm2YjDzJl-uUaXYnk--1" vertex="1">
                    <mxGeometry x="2910" y="260" width="140" height="40" as="geometry"/>
                </mxCell>
                <mxCell id="2bXB0EfvPMO8eIpLFLuM-8" style="edgeStyle=none;html=1;endArrow=none;endFill=0;strokeColor=#00FFFF;" parent="4LGm2YjDzJl-uUaXYnk--1" source="2bXB0EfvPMO8eIpLFLuM-9" edge="1">
                    <mxGeometry relative="1" as="geometry">
                        <mxPoint x="2710" y="360" as="targetPoint"/>
                    </mxGeometry>
                </mxCell>
                <mxCell id="2bXB0EfvPMO8eIpLFLuM-9" value="contacter service Clt" style="ellipse;whiteSpace=wrap;html=1;labelBorderColor=none;labelBackgroundColor=none;" parent="4LGm2YjDzJl-uUaXYnk--1" vertex="1">
                    <mxGeometry x="2910" y="368" width="140" height="40" as="geometry"/>
                </mxCell>
                <mxCell id="2bXB0EfvPMO8eIpLFLuM-10" style="edgeStyle=none;html=1;endArrow=none;endFill=0;strokeColor=#00FFFF;" parent="4LGm2YjDzJl-uUaXYnk--1" source="2bXB0EfvPMO8eIpLFLuM-11" edge="1">
                    <mxGeometry relative="1" as="geometry">
                        <mxPoint x="2710" y="350" as="targetPoint"/>
                    </mxGeometry>
                </mxCell>
                <mxCell id="2bXB0EfvPMO8eIpLFLuM-11" value="Product &amp;amp; detail Prod" style="ellipse;whiteSpace=wrap;html=1;labelBorderColor=none;labelBackgroundColor=none;" parent="4LGm2YjDzJl-uUaXYnk--1" vertex="1">
                    <mxGeometry x="3070" y="320" width="140" height="40" as="geometry"/>
                </mxCell>
                <mxCell id="2bXB0EfvPMO8eIpLFLuM-12" style="edgeStyle=none;html=1;fontSize=6;endArrow=none;endFill=0;strokeColor=#00FFFF;" parent="4LGm2YjDzJl-uUaXYnk--1" source="2bXB0EfvPMO8eIpLFLuM-14" edge="1">
                    <mxGeometry relative="1" as="geometry">
                        <mxPoint x="2720" y="510" as="targetPoint"/>
                    </mxGeometry>
                </mxCell>
                <mxCell id="2bXB0EfvPMO8eIpLFLuM-13" style="edgeStyle=orthogonalEdgeStyle;html=1;entryX=0.5;entryY=0;entryDx=0;entryDy=0;dashed=1;fontSize=6;endArrow=classic;endFill=1;strokeColor=#00FFFF;strokeWidth=2;" parent="4LGm2YjDzJl-uUaXYnk--1" source="2bXB0EfvPMO8eIpLFLuM-14" target="2bXB0EfvPMO8eIpLFLuM-24" edge="1">
                    <mxGeometry relative="1" as="geometry"/>
                </mxCell>
                <mxCell id="2bXB0EfvPMO8eIpLFLuM-14" value="Insert Prod in Panier" style="ellipse;whiteSpace=wrap;html=1;labelBorderColor=none;labelBackgroundColor=none;" parent="4LGm2YjDzJl-uUaXYnk--1" vertex="1">
                    <mxGeometry x="3090" y="400" width="140" height="40" as="geometry"/>
                </mxCell>
                <mxCell id="2bXB0EfvPMO8eIpLFLuM-15" style="edgeStyle=none;html=1;entryX=0.929;entryY=0.803;entryDx=0;entryDy=0;entryPerimeter=0;dashed=1;fontSize=6;endArrow=classicThin;endFill=1;strokeColor=#00FFFF;strokeWidth=2;startArrow=none;" parent="4LGm2YjDzJl-uUaXYnk--1" source="2bXB0EfvPMO8eIpLFLuM-51" target="2bXB0EfvPMO8eIpLFLuM-14" edge="1">
                    <mxGeometry relative="1" as="geometry"/>
                </mxCell>
                <mxCell id="ibRuatAnd9V7uiBRIfMr-0" value="" style="edgeStyle=none;html=1;" parent="4LGm2YjDzJl-uUaXYnk--1" source="2bXB0EfvPMO8eIpLFLuM-17" target="2bXB0EfvPMO8eIpLFLuM-44" edge="1">
                    <mxGeometry relative="1" as="geometry"/>
                </mxCell>
                <mxCell id="2bXB0EfvPMO8eIpLFLuM-17" value="delete Prod in Panier" style="ellipse;whiteSpace=wrap;html=1;labelBorderColor=none;labelBackgroundColor=none;" parent="4LGm2YjDzJl-uUaXYnk--1" vertex="1">
                    <mxGeometry x="3220" y="460" width="140" height="40" as="geometry"/>
                </mxCell>
                <mxCell id="2bXB0EfvPMO8eIpLFLuM-18" style="edgeStyle=none;html=1;endArrow=none;endFill=0;strokeColor=#00FFFF;" parent="4LGm2YjDzJl-uUaXYnk--1" source="2bXB0EfvPMO8eIpLFLuM-20" edge="1">
                    <mxGeometry relative="1" as="geometry">
                        <mxPoint x="2720" y="530" as="targetPoint"/>
                    </mxGeometry>
                </mxCell>
                <mxCell id="2bXB0EfvPMO8eIpLFLuM-19" style="edgeStyle=orthogonalEdgeStyle;html=1;entryX=0;entryY=1;entryDx=0;entryDy=0;dashed=1;fontSize=6;endArrow=classic;endFill=1;strokeColor=#00FFFF;strokeWidth=2;" parent="4LGm2YjDzJl-uUaXYnk--1" source="2bXB0EfvPMO8eIpLFLuM-20" target="2bXB0EfvPMO8eIpLFLuM-24" edge="1">
                    <mxGeometry relative="1" as="geometry">
                        <Array as="points">
                            <mxPoint x="3200" y="490"/>
                            <mxPoint x="3200" y="504"/>
                        </Array>
                    </mxGeometry>
                </mxCell>
                <mxCell id="2bXB0EfvPMO8eIpLFLuM-20" value="Access Profile" style="ellipse;whiteSpace=wrap;html=1;labelBorderColor=none;labelBackgroundColor=none;" parent="4LGm2YjDzJl-uUaXYnk--1" vertex="1">
                    <mxGeometry x="2895" y="470" width="140" height="40" as="geometry"/>
                </mxCell>
                <mxCell id="2bXB0EfvPMO8eIpLFLuM-53" style="edgeStyle=none;html=1;entryX=0.909;entryY=0.815;entryDx=0;entryDy=0;entryPerimeter=0;fontColor=#000000;strokeColor=#00FFFF;dashed=1;strokeWidth=2;startArrow=none;" parent="4LGm2YjDzJl-uUaXYnk--1" source="2bXB0EfvPMO8eIpLFLuM-50" target="2bXB0EfvPMO8eIpLFLuM-20" edge="1">
                    <mxGeometry relative="1" as="geometry"/>
                </mxCell>
                <mxCell id="2bXB0EfvPMO8eIpLFLuM-23" value="Update Profile" style="ellipse;whiteSpace=wrap;html=1;labelBorderColor=none;labelBackgroundColor=none;" parent="4LGm2YjDzJl-uUaXYnk--1" vertex="1">
                    <mxGeometry x="3130" y="530" width="140" height="40" as="geometry"/>
                </mxCell>
                <mxCell id="2bXB0EfvPMO8eIpLFLuM-24" value="Connection" style="ellipse;whiteSpace=wrap;html=1;labelBorderColor=none;labelBackgroundColor=none;" parent="4LGm2YjDzJl-uUaXYnk--1" vertex="1">
                    <mxGeometry x="3430" y="470" width="140" height="40" as="geometry"/>
                </mxCell>
                <mxCell id="2bXB0EfvPMO8eIpLFLuM-25" style="edgeStyle=none;html=1;endArrow=none;endFill=0;strokeColor=#00FFFF;" parent="4LGm2YjDzJl-uUaXYnk--1" source="2bXB0EfvPMO8eIpLFLuM-27" edge="1">
                    <mxGeometry relative="1" as="geometry">
                        <mxPoint x="2720" y="550" as="targetPoint"/>
                    </mxGeometry>
                </mxCell>
                <mxCell id="2bXB0EfvPMO8eIpLFLuM-26" style="edgeStyle=orthogonalEdgeStyle;html=1;entryX=0.321;entryY=1.209;entryDx=0;entryDy=0;entryPerimeter=0;dashed=1;fontSize=6;endArrow=classic;endFill=1;strokeColor=#00FFFF;strokeWidth=2;" parent="4LGm2YjDzJl-uUaXYnk--1" source="2bXB0EfvPMO8eIpLFLuM-27" target="2bXB0EfvPMO8eIpLFLuM-24" edge="1">
                    <mxGeometry relative="1" as="geometry">
                        <Array as="points">
                            <mxPoint x="2965" y="590"/>
                            <mxPoint x="3475" y="590"/>
                        </Array>
                    </mxGeometry>
                </mxCell>
                <mxCell id="2bXB0EfvPMO8eIpLFLuM-27" value="passer les command&lt;span style=&quot;color: rgba(0 , 0 , 0 , 0) ; font-family: monospace ; font-size: 0px&quot;&gt;%3CmxGraphModel%3E%3Croot%3E%3CmxCell%20id%3D%220%22%2F%3E%3CmxCell%20id%3D%221%22%20parent%3D%220%22%2F%3E%3CmxCell%20id%3D%222%22%20value%3D%22Update%20Profile%22%20style%3D%22ellipse%3BwhiteSpace%3Dwrap%3Bhtml%3D1%3BstrokeColor%3D%23FFFFFF%3BfillColor%3D%23000000%3B%22%20vertex%3D%221%22%20parent%3D%221%22%3E%3CmxGeometry%20x%3D%223080%22%20y%3D%22510%22%20width%3D%22140%22%20height%3D%2240%22%20as%3D%22geometry%22%2F%3E%3C%2FmxCell%3E%3C%2Froot%3E%3C%2FmxGraphModel%3E&lt;/span&gt;" style="ellipse;whiteSpace=wrap;html=1;labelBorderColor=none;labelBackgroundColor=none;" parent="4LGm2YjDzJl-uUaXYnk--1" vertex="1">
                    <mxGeometry x="2895" y="545" width="140" height="40" as="geometry"/>
                </mxCell>
                <mxCell id="2bXB0EfvPMO8eIpLFLuM-28" style="edgeStyle=none;html=1;endArrow=none;endFill=0;strokeColor=#00FFFF;" parent="4LGm2YjDzJl-uUaXYnk--1" source="2bXB0EfvPMO8eIpLFLuM-30" edge="1">
                    <mxGeometry relative="1" as="geometry">
                        <mxPoint x="2720" y="560" as="targetPoint"/>
                    </mxGeometry>
                </mxCell>
                <mxCell id="2bXB0EfvPMO8eIpLFLuM-29" style="edgeStyle=orthogonalEdgeStyle;html=1;entryX=0.5;entryY=1;entryDx=0;entryDy=0;dashed=1;fontSize=6;endArrow=classic;endFill=1;strokeColor=#00FFFF;strokeWidth=2;" parent="4LGm2YjDzJl-uUaXYnk--1" source="2bXB0EfvPMO8eIpLFLuM-30" target="2bXB0EfvPMO8eIpLFLuM-24" edge="1">
                    <mxGeometry relative="1" as="geometry"/>
                </mxCell>
                <mxCell id="2bXB0EfvPMO8eIpLFLuM-30" value="Deconnextion" style="ellipse;whiteSpace=wrap;html=1;labelBorderColor=none;labelBackgroundColor=none;" parent="4LGm2YjDzJl-uUaXYnk--1" vertex="1">
                    <mxGeometry x="3080" y="606" width="140" height="40" as="geometry"/>
                </mxCell>
                <mxCell id="2bXB0EfvPMO8eIpLFLuM-31" style="edgeStyle=none;html=1;endArrow=none;endFill=0;strokeColor=#00FFFF;" parent="4LGm2YjDzJl-uUaXYnk--1" source="2bXB0EfvPMO8eIpLFLuM-33" edge="1">
                    <mxGeometry relative="1" as="geometry">
                        <mxPoint x="2710" y="750" as="targetPoint"/>
                    </mxGeometry>
                </mxCell>
                <mxCell id="2bXB0EfvPMO8eIpLFLuM-32" style="edgeStyle=orthogonalEdgeStyle;html=1;dashed=1;fontSize=6;endArrow=classic;endFill=1;strokeColor=#00FFFF;strokeWidth=2;" parent="4LGm2YjDzJl-uUaXYnk--1" source="2bXB0EfvPMO8eIpLFLuM-33" edge="1">
                    <mxGeometry relative="1" as="geometry">
                        <mxPoint x="3522" y="510" as="targetPoint"/>
                    </mxGeometry>
                </mxCell>
                <mxCell id="2bXB0EfvPMO8eIpLFLuM-33" value="Action Commands" style="ellipse;whiteSpace=wrap;html=1;labelBorderColor=none;labelBackgroundColor=none;" parent="4LGm2YjDzJl-uUaXYnk--1" vertex="1">
                    <mxGeometry x="2930" y="700" width="140" height="40" as="geometry"/>
                </mxCell>
                <mxCell id="2bXB0EfvPMO8eIpLFLuM-34" style="edgeStyle=none;html=1;endArrow=none;endFill=0;strokeColor=#00FFFF;fillColor=#6a00ff;" parent="4LGm2YjDzJl-uUaXYnk--1" source="2bXB0EfvPMO8eIpLFLuM-36" edge="1">
                    <mxGeometry relative="1" as="geometry">
                        <mxPoint x="2710" y="770" as="targetPoint"/>
                    </mxGeometry>
                </mxCell>
                <mxCell id="2bXB0EfvPMO8eIpLFLuM-35" style="edgeStyle=orthogonalEdgeStyle;html=1;entryX=1;entryY=1;entryDx=0;entryDy=0;fontSize=6;endArrow=classic;endFill=1;strokeColor=#00FFFF;strokeWidth=2;dashed=1;" parent="4LGm2YjDzJl-uUaXYnk--1" source="2bXB0EfvPMO8eIpLFLuM-36" target="2bXB0EfvPMO8eIpLFLuM-24" edge="1">
                    <mxGeometry relative="1" as="geometry"/>
                </mxCell>
                <mxCell id="2bXB0EfvPMO8eIpLFLuM-36" value="Gestion des Produits" style="ellipse;whiteSpace=wrap;html=1;labelBorderColor=none;labelBackgroundColor=none;" parent="4LGm2YjDzJl-uUaXYnk--1" vertex="1">
                    <mxGeometry x="3100" y="760" width="140" height="40" as="geometry"/>
                </mxCell>
                <mxCell id="2bXB0EfvPMO8eIpLFLuM-37" style="edgeStyle=none;html=1;entryX=0.226;entryY=0.951;entryDx=0;entryDy=0;entryPerimeter=0;fontSize=6;endArrow=block;endFill=1;strokeColor=#00FFFF;" parent="4LGm2YjDzJl-uUaXYnk--1" source="2bXB0EfvPMO8eIpLFLuM-38" target="2bXB0EfvPMO8eIpLFLuM-36" edge="1">
                    <mxGeometry relative="1" as="geometry"/>
                </mxCell>
                <mxCell id="2bXB0EfvPMO8eIpLFLuM-38" value="Insert Prod" style="ellipse;whiteSpace=wrap;html=1;labelBorderColor=none;labelBackgroundColor=none;" parent="4LGm2YjDzJl-uUaXYnk--1" vertex="1">
                    <mxGeometry x="2930" y="848" width="140" height="40" as="geometry"/>
                </mxCell>
                <mxCell id="2bXB0EfvPMO8eIpLFLuM-39" style="edgeStyle=none;html=1;entryX=0.5;entryY=1;entryDx=0;entryDy=0;fontSize=6;endArrow=block;endFill=1;strokeColor=#00FFFF;" parent="4LGm2YjDzJl-uUaXYnk--1" source="2bXB0EfvPMO8eIpLFLuM-40" target="2bXB0EfvPMO8eIpLFLuM-36" edge="1">
                    <mxGeometry relative="1" as="geometry"/>
                </mxCell>
                <mxCell id="2bXB0EfvPMO8eIpLFLuM-40" value="Update Prod" style="ellipse;whiteSpace=wrap;html=1;labelBorderColor=none;labelBackgroundColor=none;" parent="4LGm2YjDzJl-uUaXYnk--1" vertex="1">
                    <mxGeometry x="3090" y="848" width="140" height="40" as="geometry"/>
                </mxCell>
                <mxCell id="2bXB0EfvPMO8eIpLFLuM-41" style="edgeStyle=none;html=1;entryX=1;entryY=1;entryDx=0;entryDy=0;fontSize=6;endArrow=block;endFill=1;strokeColor=#00FFFF;" parent="4LGm2YjDzJl-uUaXYnk--1" source="2bXB0EfvPMO8eIpLFLuM-42" target="2bXB0EfvPMO8eIpLFLuM-36" edge="1">
                    <mxGeometry relative="1" as="geometry"/>
                </mxCell>
                <mxCell id="2bXB0EfvPMO8eIpLFLuM-42" value="Delete Prod" style="ellipse;whiteSpace=wrap;html=1;labelBorderColor=none;labelBackgroundColor=none;" parent="4LGm2YjDzJl-uUaXYnk--1" vertex="1">
                    <mxGeometry x="3250" y="848" width="140" height="40" as="geometry"/>
                </mxCell>
                <mxCell id="2bXB0EfvPMO8eIpLFLuM-43" value="&lt;&lt;include&gt;&gt;" style="text;align=center;fontStyle=1;verticalAlign=middle;spacingLeft=3;spacingRight=3;rotatable=0;points=[[0,0.5],[1,0.5]];portConstraint=eastwest;fontSize=6;labelBorderColor=none;labelBackgroundColor=none;" parent="4LGm2YjDzJl-uUaXYnk--1" vertex="1">
                    <mxGeometry x="3330" y="400" width="50" height="16" as="geometry"/>
                </mxCell>
                <mxCell id="2bXB0EfvPMO8eIpLFLuM-44" value="&lt;&lt;include&gt;&gt;" style="text;align=center;fontStyle=1;verticalAlign=middle;spacingLeft=3;spacingRight=3;rotatable=0;points=[[0,0.5],[1,0.5]];portConstraint=eastwest;fontSize=6;labelBorderColor=none;labelBackgroundColor=none;" parent="4LGm2YjDzJl-uUaXYnk--1" vertex="1">
                    <mxGeometry x="3360" y="484" width="50" height="16" as="geometry"/>
                </mxCell>
                <mxCell id="2bXB0EfvPMO8eIpLFLuM-45" value="&lt;&lt;include&gt;&gt;" style="text;align=center;fontStyle=1;verticalAlign=middle;spacingLeft=3;spacingRight=3;rotatable=0;points=[[0,0.5],[1,0.5]];portConstraint=eastwest;fontSize=6;labelBorderColor=none;labelBackgroundColor=none;" parent="4LGm2YjDzJl-uUaXYnk--1" vertex="1">
                    <mxGeometry x="3360" y="568" width="50" height="16" as="geometry"/>
                </mxCell>
                <mxCell id="2bXB0EfvPMO8eIpLFLuM-46" value="&lt;&lt;include&gt;&gt;" style="text;align=center;fontStyle=1;verticalAlign=middle;spacingLeft=3;spacingRight=3;rotatable=0;points=[[0,0.5],[1,0.5]];portConstraint=eastwest;fontSize=6;labelBorderColor=none;labelBackgroundColor=none;" parent="4LGm2YjDzJl-uUaXYnk--1" vertex="1">
                    <mxGeometry x="3360" y="606" width="50" height="16" as="geometry"/>
                </mxCell>
                <mxCell id="2bXB0EfvPMO8eIpLFLuM-47" value="&lt;&lt;include&gt;&gt;" style="text;align=center;fontStyle=1;verticalAlign=middle;spacingLeft=3;spacingRight=3;rotatable=0;points=[[0,0.5],[1,0.5]];portConstraint=eastwest;fontSize=6;labelBorderColor=none;labelBackgroundColor=none;" parent="4LGm2YjDzJl-uUaXYnk--1" vertex="1">
                    <mxGeometry x="3360" y="700" width="50" height="16" as="geometry"/>
                </mxCell>
                <mxCell id="2bXB0EfvPMO8eIpLFLuM-48" value="&lt;&lt;include&gt;&gt;" style="text;align=center;fontStyle=1;verticalAlign=middle;spacingLeft=3;spacingRight=3;rotatable=0;points=[[0,0.5],[1,0.5]];portConstraint=eastwest;fontSize=6;labelBorderColor=none;labelBackgroundColor=none;" parent="4LGm2YjDzJl-uUaXYnk--1" vertex="1">
                    <mxGeometry x="3360" y="760" width="50" height="16" as="geometry"/>
                </mxCell>
                <mxCell id="2bXB0EfvPMO8eIpLFLuM-49" value="&lt;font style=&quot;font-size: 12px&quot;&gt;Vente&amp;nbsp; des Produits Artisan&lt;/font&gt;" style="html=1;fontSize=6;" parent="4LGm2YjDzJl-uUaXYnk--1" vertex="1">
                    <mxGeometry x="3100" y="170" width="235" height="50" as="geometry"/>
                </mxCell>
                <mxCell id="2bXB0EfvPMO8eIpLFLuM-51" value="&lt;&lt;include&gt;&gt;" style="text;align=center;fontStyle=1;verticalAlign=middle;spacingLeft=3;spacingRight=3;rotatable=0;points=[[0,0.5],[1,0.5]];portConstraint=eastwest;fontSize=6;labelBorderColor=none;labelBackgroundColor=none;" parent="4LGm2YjDzJl-uUaXYnk--1" vertex="1">
                    <mxGeometry x="3285" y="430" width="50" height="16" as="geometry"/>
                </mxCell>
                <mxCell id="2bXB0EfvPMO8eIpLFLuM-52" value="" style="edgeStyle=none;html=1;entryX=0.929;entryY=0.803;entryDx=0;entryDy=0;entryPerimeter=0;dashed=1;fontSize=6;endArrow=none;endFill=1;strokeColor=#00FFFF;strokeWidth=2;" parent="4LGm2YjDzJl-uUaXYnk--1" source="2bXB0EfvPMO8eIpLFLuM-17" target="2bXB0EfvPMO8eIpLFLuM-51" edge="1">
                    <mxGeometry relative="1" as="geometry">
                        <mxPoint x="3262.9237501494817" y="461.55675734819783" as="sourcePoint"/>
                        <mxPoint x="3220.06" y="432.12" as="targetPoint"/>
                    </mxGeometry>
                </mxCell>
                <mxCell id="2bXB0EfvPMO8eIpLFLuM-50" value="&lt;&lt;include&gt;&gt;" style="text;align=center;fontStyle=1;verticalAlign=middle;spacingLeft=3;spacingRight=3;rotatable=0;points=[[0,0.5],[1,0.5]];portConstraint=eastwest;fontSize=6;labelBorderColor=none;labelBackgroundColor=none;" parent="4LGm2YjDzJl-uUaXYnk--1" vertex="1">
                    <mxGeometry x="3070" y="514" width="50" height="16" as="geometry"/>
                </mxCell>
                <mxCell id="2bXB0EfvPMO8eIpLFLuM-54" value="" style="edgeStyle=none;html=1;entryX=0.909;entryY=0.815;entryDx=0;entryDy=0;entryPerimeter=0;fontColor=#000000;strokeColor=#00FFFF;dashed=1;strokeWidth=2;endArrow=none;" parent="4LGm2YjDzJl-uUaXYnk--1" source="2bXB0EfvPMO8eIpLFLuM-23" target="2bXB0EfvPMO8eIpLFLuM-50" edge="1">
                    <mxGeometry relative="1" as="geometry">
                        <mxPoint x="3148.725095761111" y="536.3846299478655" as="sourcePoint"/>
                        <mxPoint x="3022.26" y="502.5999999999999" as="targetPoint"/>
                    </mxGeometry>
                </mxCell>
            </root>
        </mxGraphModel>
    </diagram>
    <diagram id="sU5yLA0Z_8yGWS3xKPiJ" name="Page-3">
        <mxGraphModel dx="832" dy="475" grid="1" gridSize="10" guides="1" tooltips="1" connect="1" arrows="1" fold="1" page="1" pageScale="1" pageWidth="850" pageHeight="1100" math="0" shadow="0">
            <root>
                <mxCell id="0"/>
                <mxCell id="1" parent="0"/>
            </root>
        </mxGraphModel>
    </diagram>
</mxfile>